# xmcd CD database file
#
# Track frame offsets:
#	150
#	14671
#	27876
#	41206
#	53188
#	66054
#	78983
#	90570
#	104307
#	116159
#	128436
#	142191
#	155453
#	166213
#	180160
#	192048
#	205146
#	219604
#	233345
#	246916
#	259299
#	272630
#	286287
#	298970
#	311629
#
# Disc length: 4341 seconds
#
# Revision: 0
# Processed by: cddbd v1.5.1PL2 Copyright (c) Steve Scherf et al.
# Submitted via: CDex 1.51
#
DISCID=6a10f319
DTITLE=Bob Crosby's Bobcats - Bob Crosby's Bobcats
DYEAR=1999
DGENRE=Jazz
TTITLE0=Stumblin'
TTITLE1=Who's Sorry Now
TTITLE2=Coquette
TTITLE3=Fidgety Feet
TTITLE4=You're Driving Me Crazy
TTITLE5=Can't We Be Friends
TTITLE6=March Of The Bobcats
TTITLE7=Slow Mood
TTITLE8=Big Foot Jump
TTITLE9=The Big Crash From China
TTITLE10=Five Point Blues
TTITLE11=Speak To Me Of Love
TTITLE12=I Hear You Talkin'
TTITLE13=Call Me A Taxi
TTITLE14=The Big Noise From Winnetka
TTITLE15=Loopin' The Loop
TTITLE16=Hindustan
TTITLE17=Mournin' Blues
TTITLE18=Till We Meet Again
TTITLE19=Washington and Lee Swing
TTITLE20=The Love Nest
TTITLE21=Spain
TTITLE22=All By Myself
TTITLE23=Jazz Me Blues
TTITLE24=Tin Roof Blues
EXTD=YEAR: 1999
EXTT0=
EXTT1=
EXTT2=
EXTT3=
EXTT4=
EXTT5=
EXTT6=
EXTT7=
EXTT8=
EXTT9=
EXTT10=
EXTT11=
EXTT12=
EXTT13=
EXTT14=
EXTT15=
EXTT16=
EXTT17=
EXTT18=
EXTT19=
EXTT20=
EXTT21=
EXTT22=
EXTT23=
EXTT24=
PLAYORDER=
